<svg version="1.1" id="Layer_1" xmlns="http://www.w3.org/2000/svg" xmlns:xlink="http://www.w3.org/1999/xlink" x="0px" y="0px"
	 width="100%" viewBox="0 0 426 160" enable-background="new 0 0 426 160" xml:space="preserve">
<path fill="#eeeee4" opacity="1.000000" stroke="none"
	d="
M269.000000,161.000000
	C179.333328,161.000000 90.166664,161.000000 1.000000,161.000000
	C1.000000,107.666664 1.000000,54.333332 1.000000,1.000000
	C143.000000,1.000000 285.000000,1.000000 427.000000,1.000000
	C427.000000,54.333332 427.000000,107.666664 427.000000,161.000000
	C374.500000,161.000000 322.000000,161.000000 269.000000,161.000000
M134.990295,140.560150
	C138.836700,135.880585 144.315903,131.763443 146.164703,126.395813
	C149.305008,117.278671 151.304535,107.425301 151.738510,97.789223
	C152.705872,76.309814 149.608658,55.381710 138.705215,36.262241
	C129.255844,19.692528 116.964920,15.250117 99.350487,22.252193
	C74.756508,32.028774 57.701538,49.794792 47.077507,73.576286
	C37.005943,96.121117 41.720158,113.303673 60.624062,126.549423
	C73.462448,135.545151 87.775810,141.224930 103.182823,143.902267
	C113.767189,145.741577 124.380310,146.280182 134.990295,140.560150
M362.267944,76.344170
	C361.377563,76.011055 360.487213,75.677940 358.551331,74.953667
	C360.706024,80.647285 362.431091,85.205772 364.395721,90.397232
	C365.970062,87.553604 367.211731,85.310837 368.604462,82.795197
	C369.996887,85.278503 371.223907,87.466873 372.877472,90.415947
	C374.945099,85.019379 376.703247,80.430557 378.461395,75.841736
	C377.814941,75.510109 377.168518,75.178490 376.522095,74.846870
	C375.148132,77.132347 373.774139,79.417824 372.295929,81.876701
	C371.113068,79.883675 369.926636,77.884659 368.598236,75.646408
	C367.213165,77.963844 366.155792,79.733002 364.847931,81.921265
	C363.928925,79.893196 363.272278,78.444191 362.267944,76.344170
M195.086349,84.385300
	C195.954315,86.201721 196.822281,88.018143 197.860672,90.191200
	C199.268036,87.401527 200.403580,85.150627 201.824173,82.334740
	C203.323807,85.182365 204.499161,87.414238 206.056061,90.370628
	C208.163071,84.981407 209.959564,80.386383 211.756073,75.791359
	C211.146072,75.441833 210.536072,75.092308 209.926056,74.742775
	C208.424179,77.120224 206.922287,79.497665 205.327103,82.022820
	C204.181229,79.823944 203.066467,77.684776 201.755737,75.169525
	C200.526978,77.821228 199.574478,79.876747 198.678970,81.809273
	C195.618301,80.616272 197.685440,74.628578 191.980133,75.596565
	C193.044098,78.489929 193.991776,81.067017 195.086349,84.385300
M351.306305,84.378677
	C353.041046,84.278641 354.775757,84.178612 356.510498,84.078575
	C356.628723,83.549644 356.746918,83.020706 356.865143,82.491776
	C354.512238,81.799065 352.159363,81.106354 349.806458,80.413643
	C349.775696,80.057877 349.744904,79.702118 349.714142,79.346359
	C352.303894,78.602455 354.893646,77.858551 357.483398,77.114647
	C357.310577,76.614243 357.137787,76.113838 356.964996,75.613434
	C353.581818,75.613434 350.198639,75.613434 346.557373,75.613434
	C346.557373,80.488472 346.557373,85.042694 346.557373,90.085205
	C348.918762,90.085205 351.048553,90.254761 353.134674,90.025986
	C354.540497,89.871811 355.884613,89.155212 357.256348,88.690224
	C355.951965,88.143738 354.653107,87.583633 353.341644,87.054688
	C352.100342,86.554054 348.958313,88.335777 351.306305,84.378677
M343.257141,87.495819
	C343.256134,84.186455 343.338409,80.873337 343.189423,77.570641
	C343.156433,76.839821 342.305969,76.145874 341.831909,75.434959
	C341.207458,76.167747 340.181549,76.832222 340.042786,77.647667
	C339.760895,79.304100 339.958527,81.042122 339.958527,83.219498
	C336.411102,80.458817 333.542755,78.226616 330.262939,75.674202
	C329.737122,89.399033 329.737122,89.399033 333.020874,89.521133
	C333.226654,87.355339 333.432526,85.188469 333.701141,82.361450
	C336.700897,84.886894 339.039276,86.923523 341.485748,88.820816
	C341.761505,89.034683 342.647430,88.461769 343.257141,87.495819
M314.022888,88.373512
	C313.531860,84.841400 316.759369,86.553986 317.976746,85.510567
	C319.560150,84.153404 321.890808,82.438835 321.920166,80.841705
	C321.949799,79.227921 319.870697,76.895439 318.151459,76.106125
	C316.122437,75.174583 313.488373,75.560852 310.770172,75.348763
	C310.770172,79.939697 310.784210,83.736130 310.765350,87.532402
	C310.752289,90.164680 311.688751,90.926132 314.022888,88.373512
M226.377167,86.714615
	C228.291168,83.038956 228.157471,79.639420 224.603058,77.076447
	C221.333054,74.718552 217.866180,74.403915 214.642029,77.261940
	C211.340836,80.188263 211.150436,84.669647 214.080261,87.873810
	C217.114014,91.191628 221.556274,90.956238 226.377167,86.714615
M240.190033,77.106400
	C236.982620,76.360321 233.775192,75.614235 230.155243,74.772194
	C230.155243,80.532913 230.155243,85.115143 230.155243,89.697365
	C230.577866,89.934784 231.000473,90.172203 231.423096,90.409622
	C232.367538,88.931892 233.311981,87.454163 234.336044,85.851852
	C236.604904,87.423042 238.913574,89.021782 241.222229,90.620529
	C241.504852,90.276657 241.787476,89.932785 242.070099,89.588913
	C241.066788,88.182686 240.063477,86.776451 239.060165,85.370224
	C239.483490,85.344780 239.906815,85.319328 240.330154,85.293884
	C240.452026,82.746910 240.573914,80.199928 240.190033,77.106400
M270.041656,81.172966
	C267.549408,75.609047 264.371887,74.355431 257.261047,76.082863
	C257.261047,80.671158 257.261047,85.236801 257.261047,89.773247
	C267.367432,90.511292 269.739227,89.017036 270.041656,81.172966
M385.598114,75.339272
	C383.757111,76.444328 380.587982,77.283867 380.304810,78.700371
	C379.074463,84.854469 386.228943,82.766441 389.449524,86.995567
	C385.585327,86.995567 382.885010,86.995567 380.184662,86.995567
	C380.176941,87.591515 380.169220,88.187469 380.161499,88.783417
	C382.482971,89.229935 384.930573,90.333656 387.086945,89.919823
	C388.886658,89.574432 391.018097,87.711685 391.678070,86.007874
	C392.021118,85.122253 389.702240,82.859276 388.205811,81.715874
	C386.986389,80.784126 385.201904,80.591866 383.667999,80.071709
	C383.767242,79.552208 383.866486,79.032715 383.965729,78.513214
	C386.270935,78.513214 388.576111,78.513214 390.881287,78.513214
	C390.965424,78.056763 391.049561,77.600311 391.133698,77.143860
	C389.548828,76.542351 387.963989,75.940834 385.598114,75.339272
M307.676392,83.903641
	C307.679108,81.746002 307.819763,79.574699 307.608002,77.438316
	C307.536072,76.712791 306.575256,76.075371 306.020630,75.397682
	C305.452362,76.061531 304.472107,76.680115 304.393280,77.397743
	C304.158844,79.531502 304.695374,81.825401 304.115051,83.819344
	C303.724426,85.161514 301.951141,86.101257 300.796448,87.221046
	C299.869720,86.067482 298.335999,85.006981 298.141907,83.741096
	C297.730164,81.055511 298.016296,78.262932 298.016296,74.300331
	C292.913605,77.479645 295.020233,81.388069 294.857544,84.421822
	C294.670441,87.909988 296.958405,89.823410 300.463898,90.098030
	C304.410370,90.407181 306.735168,88.554787 307.676392,83.903641
M291.775757,79.618584
	C291.135986,75.423210 287.457672,74.630608 284.855927,75.556633
	C282.191193,76.505081 279.302002,79.229393 278.307129,81.856552
	C277.051941,85.171249 279.336243,88.399803 282.767517,89.669914
	C286.447937,91.032249 289.874542,90.377190 292.842529,85.253265
	C290.216187,86.040634 288.708099,86.934029 287.293304,86.804909
	C285.535736,86.644508 283.292664,86.084038 282.320465,84.856171
	C281.549683,83.882660 281.782013,81.130211 282.661743,80.110916
	C283.544708,79.087944 285.773804,78.991295 287.425446,78.946114
	C288.624939,78.913307 289.844788,79.625572 291.775757,79.618584
M244.069244,82.576500
	C244.069244,84.991295 244.069244,87.406097 244.069244,89.736145
	C248.167206,89.736145 251.550491,89.736145 254.933792,89.736145
	C255.031631,89.200066 255.129456,88.663994 255.227295,88.127914
	C252.813278,87.553436 250.399261,86.978951 247.680557,86.331955
	C247.680557,84.759941 247.885315,83.088676 247.629395,81.491203
	C247.300034,79.435326 246.601334,77.438606 246.061691,75.416412
	C245.397552,77.494293 244.733414,79.572174 244.069244,82.576500
z"/>
<path fill="#8a1538" opacity="1.000000" stroke="none"
	d="
M134.667694,140.735413
	C124.380310,146.280182 113.767189,145.741577 103.182823,143.902267
	C87.775810,141.224930 73.462448,135.545151 60.624062,126.549423
	C41.720158,113.303673 37.005943,96.121117 47.077507,73.576286
	C57.701538,49.794792 74.756508,32.028774 99.350487,22.252193
	C116.964920,15.250117 129.255844,19.692528 138.705215,36.262241
	C149.608658,55.381710 152.705872,76.309814 151.738510,97.789223
	C151.304535,107.425301 149.305008,117.278671 146.164703,126.395813
	C144.315903,131.763443 138.836700,135.880585 134.667694,140.735413
M133.779358,37.927021
	C124.582497,24.410635 117.303101,21.119368 103.175049,26.611732
	C75.892654,37.217922 57.669456,56.863907 48.945740,84.886612
	C44.615620,98.796013 48.875591,110.266296 60.239006,119.261017
	C76.216721,131.908173 94.505051,138.522964 114.701851,139.696304
	C125.640610,140.331802 135.754730,137.373749 140.513168,126.589935
	C143.657913,119.463135 145.454758,111.441780 146.285217,103.653542
	C148.252884,85.200302 145.891113,67.102608 139.464355,49.074528
	C132.677399,54.623672 125.655525,58.446182 117.310440,59.401073
	C116.377937,59.507778 115.103821,60.496349 114.771759,61.372845
	C112.046242,68.566917 109.506416,75.831352 106.849121,83.244919
	C108.219933,83.668480 109.313385,83.992241 110.397888,84.343628
	C120.751060,87.697990 126.452950,94.668121 126.811600,105.580460
	C127.040184,112.535515 126.444374,119.532745 125.935890,126.490433
	C125.689720,129.858765 124.243011,132.963028 120.115036,132.450211
	C116.211708,131.965286 115.239952,128.797791 115.405228,125.393265
	C115.606590,121.245499 116.027306,117.104736 116.465050,112.972801
	C117.620613,102.065353 114.929787,98.123650 104.497322,95.206856
	C100.985626,94.225021 98.631508,94.581017 96.908752,98.396385
	C95.651237,101.181419 93.172638,103.413933 91.244591,105.897583
	C81.799019,118.065071 70.724052,113.860580 62.545914,105.234276
	C60.994495,103.597824 58.312828,101.533226 61.118538,98.944527
	C63.576752,96.676430 65.914017,97.769646 68.068008,99.938087
	C69.457405,101.336784 71.160202,102.436142 72.775696,103.595589
	C75.529251,105.571815 77.705482,105.399948 79.894157,102.384483
	C88.825798,90.078865 93.182434,76.007057 96.668610,61.398552
	C87.784477,61.084934 81.959724,66.124832 79.637642,75.921860
	C78.846832,79.258316 77.587395,82.532387 73.653336,81.709694
	C69.673279,80.877357 69.840012,77.187454 70.449753,73.930954
	C72.012985,65.582123 76.561073,59.357620 84.810768,57.054501
	C91.119026,55.293381 97.754974,54.330505 104.303680,53.897373
	C113.307289,53.301876 122.164223,52.455879 130.394653,48.475986
	C136.090958,45.721489 136.785980,43.676067 133.779358,37.927021
z"/>
<path fill="#8a1538" opacity="1.000000" stroke="none"
	d="
M362.441803,76.669678
	C363.272278,78.444191 363.928925,79.893196 364.847931,81.921265
	C366.155792,79.733002 367.213165,77.963844 368.598236,75.646408
	C369.926636,77.884659 371.113068,79.883675 372.295929,81.876701
	C373.774139,79.417824 375.148132,77.132347 376.522095,74.846870
	C377.168518,75.178490 377.814941,75.510109 378.461395,75.841736
	C376.703247,80.430557 374.945099,85.019379 372.877472,90.415947
	C371.223907,87.466873 369.996887,85.278503 368.604462,82.795197
	C367.211731,85.310837 365.970062,87.553604 364.395721,90.397232
	C362.431091,85.205772 360.706024,80.647285 358.551331,74.953667
	C360.487213,75.677940 361.377563,76.011055 362.441803,76.669678
z"/>
<path fill="#8a1538" opacity="1.000000" stroke="none"
	d="
M195.012894,84.014694
	C193.991776,81.067017 193.044098,78.489929 191.980133,75.596565
	C197.685440,74.628578 195.618301,80.616272 198.678970,81.809273
	C199.574478,79.876747 200.526978,77.821228 201.755737,75.169525
	C203.066467,77.684776 204.181229,79.823944 205.327103,82.022820
	C206.922287,79.497665 208.424179,77.120224 209.926056,74.742775
	C210.536072,75.092308 211.146072,75.441833 211.756073,75.791359
	C209.959564,80.386383 208.163071,84.981407 206.056061,90.370628
	C204.499161,87.414238 203.323807,85.182365 201.824173,82.334740
	C200.403580,85.150627 199.268036,87.401527 197.860672,90.191200
	C196.822281,88.018143 195.954315,86.201721 195.012894,84.014694
z"/>
<path fill="#8a1538" opacity="1.000000" stroke="none"
	d="
M350.869324,84.493546
	C348.958313,88.335777 352.100342,86.554054 353.341644,87.054688
	C354.653107,87.583633 355.951965,88.143738 357.256348,88.690216
	C355.884613,89.155212 354.540497,89.871811 353.134674,90.025986
	C351.048553,90.254761 348.918762,90.085205 346.557373,90.085205
	C346.557373,85.042694 346.557373,80.488472 346.557373,75.613434
	C350.198639,75.613434 353.581818,75.613434 356.964996,75.613434
	C357.137787,76.113838 357.310577,76.614243 357.483398,77.114647
	C354.893646,77.858551 352.303894,78.602455 349.714142,79.346359
	C349.744904,79.702118 349.775696,80.057877 349.806458,80.413643
	C352.159363,81.106354 354.512238,81.799065 356.865143,82.491776
	C356.746918,83.020706 356.628723,83.549644 356.510498,84.078575
	C354.775757,84.178612 353.041046,84.278641 350.869324,84.493546
z"/>
<path fill="#8a1538" opacity="1.000000" stroke="none"
	d="
M343.253784,87.874756
	C342.647430,88.461769 341.761505,89.034683 341.485748,88.820816
	C339.039276,86.923523 336.700897,84.886894 333.701141,82.361450
	C333.432526,85.188469 333.226654,87.355339 333.020874,89.521133
	C329.737122,89.399033 329.737122,89.399033 330.262939,75.674202
	C333.542755,78.226616 336.411102,80.458817 339.958527,83.219498
	C339.958527,81.042122 339.760895,79.304100 340.042786,77.647667
	C340.181549,76.832222 341.207458,76.167747 341.831909,75.434952
	C342.305969,76.145874 343.156433,76.839821 343.189423,77.570641
	C343.338409,80.873337 343.256134,84.186455 343.253784,87.874756
z"/>
<path fill="#8a1538" opacity="1.000000" stroke="none"
	d="
M313.988770,88.799774
	C311.688751,90.926132 310.752289,90.164680 310.765350,87.532402
	C310.784210,83.736130 310.770172,79.939697 310.770172,75.348763
	C313.488373,75.560852 316.122437,75.174583 318.151459,76.106125
	C319.870697,76.895439 321.949799,79.227921 321.920166,80.841705
	C321.890808,82.438835 319.560150,84.153404 317.976746,85.510567
	C316.759369,86.553986 313.531860,84.841400 313.988770,88.799774
z"/>
<path fill="#8a1538" opacity="1.000000" stroke="none"
	d="
M226.124054,86.981827
	C221.556274,90.956238 217.114014,91.191628 214.080261,87.873810
	C211.150436,84.669647 211.340836,80.188263 214.642029,77.261940
	C217.866180,74.403915 221.333054,74.718552 224.603058,77.076447
	C228.157471,79.639420 228.291168,83.038956 226.124054,86.981827
M216.706833,79.738297
	C216.375320,81.233856 215.286530,83.515900 215.861740,84.069748
	C217.287384,85.442459 219.552124,86.806114 221.324310,86.627876
	C222.360748,86.523636 224.047348,83.287125 223.780441,81.747711
	C223.156952,78.151711 220.324066,77.873604 216.706833,79.738297
z"/>
<path fill="#8a1538" opacity="1.000000" stroke="none"
	d="
M240.442917,77.379677
	C240.573914,80.199928 240.452026,82.746910 240.330154,85.293884
	C239.906815,85.319328 239.483490,85.344780 239.060165,85.370224
	C240.063477,86.776451 241.066788,88.182686 242.070099,89.588913
	C241.787476,89.932785 241.504852,90.276657 241.222229,90.620529
	C238.913574,89.021782 236.604904,87.423042 234.336044,85.851852
	C233.311981,87.454163 232.367538,88.931892 231.423096,90.409622
	C231.000473,90.172203 230.577866,89.934784 230.155243,89.697365
	C230.155243,85.115143 230.155243,80.532913 230.155243,74.772194
	C233.775192,75.614235 236.982620,76.360321 240.442917,77.379677
M233.893219,82.620285
	C235.382965,81.883606 236.872696,81.146927 238.362442,80.410248
	C237.494736,79.649734 236.697403,78.351822 235.746445,78.227333
	C232.630325,77.819389 232.971069,80.004837 233.893219,82.620285
z"/>
<path fill="#8a1538" opacity="1.000000" stroke="none"
	d="
M270.075104,81.531113
	C269.739227,89.017036 267.367432,90.511292 257.261047,89.773247
	C257.261047,85.236801 257.261047,80.671158 257.261047,76.082863
	C264.371887,74.355431 267.549408,75.609047 270.075104,81.531113
M260.492676,78.380852
	C260.315399,81.236107 260.138123,84.091370 259.954651,87.046204
	C263.669769,87.214714 266.722290,87.469749 267.045135,83.104500
	C267.360565,78.839935 264.488586,78.368629 260.492676,78.380852
z"/>
<path fill="#8a1538" opacity="1.000000" stroke="none"
	d="
M385.988617,75.339294
	C387.963989,75.940834 389.548828,76.542351 391.133698,77.143860
	C391.049561,77.600311 390.965424,78.056763 390.881287,78.513214
	C388.576111,78.513214 386.270935,78.513214 383.965729,78.513214
	C383.866486,79.032715 383.767242,79.552208 383.667999,80.071709
	C385.201904,80.591866 386.986389,80.784126 388.205811,81.715874
	C389.702240,82.859276 392.021118,85.122253 391.678070,86.007874
	C391.018097,87.711685 388.886658,89.574432 387.086945,89.919823
	C384.930573,90.333656 382.482971,89.229935 380.161499,88.783417
	C380.169220,88.187469 380.176941,87.591515 380.184662,86.995567
	C382.885010,86.995567 385.585327,86.995567 389.449524,86.995567
	C386.228943,82.766441 379.074463,84.854469 380.304810,78.700371
	C380.587982,77.283867 383.757111,76.444328 385.988617,75.339294
z"/>
<path fill="#8a1538" opacity="1.000000" stroke="none"
	d="
M307.615295,84.314651
	C306.735168,88.554787 304.410370,90.407181 300.463898,90.098030
	C296.958405,89.823410 294.670441,87.909988 294.857544,84.421822
	C295.020233,81.388069 292.913605,77.479645 298.016296,74.300331
	C298.016296,78.262932 297.730164,81.055511 298.141907,83.741096
	C298.335999,85.006981 299.869720,86.067482 300.796448,87.221039
	C301.951141,86.101257 303.724426,85.161514 304.115051,83.819344
	C304.695374,81.825401 304.158844,79.531502 304.393280,77.397743
	C304.472107,76.680115 305.452362,76.061531 306.020630,75.397690
	C306.575256,76.075371 307.536072,76.712791 307.608002,77.438316
	C307.819763,79.574699 307.679108,81.746002 307.615295,84.314651
z"/>
<path fill="#8a1538" opacity="1.000000" stroke="none"
	d="
M291.415649,79.812103
	C289.844788,79.625572 288.624939,78.913307 287.425446,78.946114
	C285.773804,78.991295 283.544708,79.087944 282.661743,80.110916
	C281.782013,81.130211 281.549683,83.882660 282.320465,84.856171
	C283.292664,86.084038 285.535736,86.644508 287.293304,86.804909
	C288.708099,86.934029 290.216187,86.040634 292.842529,85.253265
	C289.874542,90.377190 286.447937,91.032249 282.767517,89.669914
	C279.336243,88.399803 277.051941,85.171249 278.307129,81.856552
	C279.302002,79.229393 282.191193,76.505081 284.855927,75.556633
	C287.457672,74.630608 291.135986,75.423210 291.415649,79.812103
z"/>
<path fill="#8a1538" opacity="1.000000" stroke="none"
	d="
M244.069244,82.113281
	C244.733414,79.572174 245.397552,77.494293 246.061707,75.416412
	C246.601334,77.438606 247.300034,79.435326 247.629395,81.491203
	C247.885315,83.088676 247.680557,84.759941 247.680557,86.331955
	C250.399261,86.978951 252.813278,87.553436 255.227295,88.127914
	C255.129456,88.663994 255.031631,89.200066 254.933792,89.736145
	C251.550491,89.736145 248.167206,89.736145 244.069244,89.736145
	C244.069244,87.406097 244.069244,84.991295 244.069244,82.113281
z"/>
<path fill="#eeeee4" opacity="1.000000" stroke="none"
	d="
M133.970825,38.242752
	C136.785980,43.676067 136.090958,45.721489 130.394653,48.475986
	C122.164223,52.455879 113.307289,53.301876 104.303680,53.897373
	C97.754974,54.330505 91.119026,55.293381 84.810768,57.054501
	C76.561073,59.357620 72.012985,65.582123 70.449753,73.930954
	C69.840012,77.187454 69.673279,80.877357 73.653336,81.709694
	C77.587395,82.532387 78.846832,79.258316 79.637642,75.921860
	C81.959724,66.124832 87.784477,61.084934 96.668610,61.398552
	C93.182434,76.007057 88.825798,90.078865 79.894157,102.384483
	C77.705482,105.399948 75.529251,105.571815 72.775696,103.595589
	C71.160202,102.436142 69.457405,101.336784 68.068008,99.938087
	C65.914017,97.769646 63.576752,96.676430 61.118538,98.944527
	C58.312828,101.533226 60.994495,103.597824 62.545914,105.234276
	C70.724052,113.860580 81.799019,118.065071 91.244591,105.897583
	C93.172638,103.413933 95.651237,101.181419 96.908752,98.396385
	C98.631508,94.581017 100.985626,94.225021 104.497322,95.206856
	C114.929787,98.123650 117.620613,102.065353 116.465050,112.972801
	C116.027306,117.104736 115.606590,121.245499 115.405228,125.393265
	C115.239952,128.797791 116.211708,131.965286 120.115036,132.450211
	C124.243011,132.963028 125.689720,129.858765 125.935890,126.490433
	C126.444374,119.532745 127.040184,112.535515 126.811600,105.580460
	C126.452950,94.668121 120.751060,87.697990 110.397888,84.343628
	C109.313385,83.992241 108.219933,83.668480 106.849121,83.244919
	C109.506416,75.831352 112.046242,68.566917 114.771759,61.372845
	C115.103821,60.496349 116.377937,59.507778 117.310440,59.401073
	C125.655525,58.446182 132.677399,54.623672 139.464355,49.074528
	C145.891113,67.102608 148.252884,85.200302 146.285217,103.653542
	C145.454758,111.441780 143.657913,119.463135 140.513168,126.589935
	C135.754730,137.373749 125.640610,140.331802 114.701851,139.696304
	C94.505051,138.522964 76.216721,131.908173 60.239006,119.261017
	C48.875591,110.266296 44.615620,98.796013 48.945740,84.886612
	C57.669456,56.863907 75.892654,37.217922 103.175049,26.611732
	C117.303101,21.119368 124.582497,24.410635 133.970825,38.242752
M94.295830,127.757286
	C97.310768,133.534912 100.201813,135.286530 104.645584,134.028000
	C109.092506,132.768570 111.781441,128.041763 110.955154,122.936539
	C110.297615,118.873940 106.115265,114.970558 102.460854,115.008812
	C98.364594,115.051682 94.406990,119.202934 93.983612,123.984489
	C93.896439,124.968987 94.068840,125.976486 94.295830,127.757286
M115.247566,40.561134
	C114.447029,39.748707 113.790947,38.597195 112.820442,38.183750
	C109.031807,36.569763 105.932907,38.064873 103.871574,41.216259
	C101.928284,44.187180 101.280891,48.159534 104.661674,49.992184
	C106.762253,51.130863 111.029976,50.618462 112.933784,49.101318
	C114.770630,47.637547 114.821228,43.932274 115.247566,40.561134
z"/>
<path fill="#eeeee4" opacity="1.000000" stroke="none"
	d="
M216.991196,79.441635
	C220.324066,77.873604 223.156952,78.151711 223.780441,81.747711
	C224.047348,83.287125 222.360748,86.523636 221.324310,86.627876
	C219.552124,86.806114 217.287384,85.442459 215.861740,84.069748
	C215.286530,83.515900 216.375320,81.233856 216.991196,79.441635
z"/>
<path fill="#eeeee4" opacity="1.000000" stroke="none"
	d="
M233.621185,82.328186
	C232.971069,80.004837 232.630325,77.819389 235.746445,78.227333
	C236.697403,78.351822 237.494736,79.649734 238.362442,80.410248
	C236.872696,81.146927 235.382965,81.883606 233.621185,82.328186
z"/>
<path fill="#eeeee4" opacity="1.000000" stroke="none"
	d="
M260.905823,78.300018
	C264.488586,78.368629 267.360565,78.839935 267.045135,83.104500
	C266.722290,87.469749 263.669769,87.214714 259.954651,87.046204
	C260.138123,84.091370 260.315399,81.236107 260.905823,78.300018
z"/>
<path fill="#8a1538" opacity="1.000000" stroke="none"
	d="
M94.208710,127.365334
	C94.068840,125.976486 93.896439,124.968987 93.983612,123.984489
	C94.406990,119.202934 98.364594,115.051682 102.460854,115.008812
	C106.115265,114.970558 110.297615,118.873940 110.955154,122.936539
	C111.781441,128.041763 109.092506,132.768570 104.645584,134.028000
	C100.201813,135.286530 97.310768,133.534912 94.208710,127.365334
M98.286964,122.019608
	C98.143784,123.159164 97.465637,124.699173 97.960915,125.360794
	C99.278389,127.120796 101.101578,128.502243 102.723671,130.034225
	C104.214897,128.353622 106.387436,126.872910 106.959633,124.922668
	C107.345963,123.605873 105.832130,120.682915 104.523560,120.190025
	C102.979805,119.608543 100.740616,120.873322 98.286964,122.019608
z"/>
<path fill="#8a1538" opacity="1.000000" stroke="none"
	d="
M115.452057,40.886425
	C114.821228,43.932274 114.770630,47.637547 112.933784,49.101318
	C111.029976,50.618462 106.762253,51.130863 104.661674,49.992184
	C101.280891,48.159534 101.928284,44.187180 103.871574,41.216259
	C105.932907,38.064873 109.031807,36.569763 112.820442,38.183750
	C113.790947,38.597195 114.447029,39.748707 115.452057,40.886425
z"/>
<path fill="#eeeee4" opacity="1.000000" stroke="none"
	d="
M98.544945,121.678627
	C100.740616,120.873322 102.979805,119.608543 104.523560,120.190025
	C105.832130,120.682915 107.345963,123.605873 106.959633,124.922668
	C106.387436,126.872910 104.214897,128.353622 102.723671,130.034225
	C101.101578,128.502243 99.278389,127.120796 97.960915,125.360794
	C97.465637,124.699173 98.143784,123.159164 98.544945,121.678627
z"/>
</svg>
