<svg version="1.1" id="Layer_1" xmlns="http://www.w3.org/2000/svg" xmlns:xlink="http://www.w3.org/1999/xlink" x="0px" y="0px"
	 width="100%" viewBox="0 0 928 1024" enable-background="new 0 0 928 1024" xml:space="preserve">
<path fill="#8a1538" opacity="1.000000" stroke="none"
	d="
M408.972229,127.914948
	C440.749481,111.937843 472.829620,97.683937 506.774872,88.003494
	C532.277405,80.730713 558.284058,77.010223 584.764282,78.875603
	C621.109680,81.435928 653.207336,94.951263 681.112671,118.389732
	C708.709229,141.568878 729.199951,170.387619 746.811523,201.448349
	C771.395874,244.806519 790.644775,290.467834 804.949524,338.186310
	C815.950867,374.884857 824.216553,412.193970 829.434021,450.190460
	C836.153625,499.126556 838.851196,548.283264 838.082520,597.631958
	C837.563782,630.932678 835.344666,664.099121 830.609070,697.134888
	C824.091614,742.600220 813.189941,786.926514 798.595398,830.418213
	C791.803833,850.656921 779.298828,867.194763 765.049622,882.539307
	C749.746399,899.018677 734.058167,915.140076 718.589294,931.466370
	C717.166870,932.967529 715.513123,933.965515 713.738403,934.896240
	C688.737610,948.006226 662.233154,956.615173 634.380371,960.951050
	C609.769348,964.782227 585.017700,965.224609 560.176025,963.481140
	C497.508484,959.082764 436.736206,945.414551 377.430664,925.280762
	C307.198395,901.437317 242.005173,867.605591 182.629135,823.035217
	C148.360733,797.311829 118.624138,767.174622 97.025200,729.725281
	C81.357864,702.560425 71.482750,673.432922 67.626671,642.269470
	C61.558147,593.225830 70.011314,546.049438 86.523956,500.099304
	C110.017418,434.723511 143.224625,374.411072 184.386368,318.593048
	C231.031082,255.339752 287.302917,202.122269 353.630768,159.701157
	C371.475952,148.287949 389.858734,137.846573 408.972229,127.914948
M677.119263,168.368851
	C667.867859,158.062363 658.115112,148.298264 647.073059,139.864685
	C629.345093,126.324524 609.685669,117.349449 587.324707,115.427170
	C563.940369,113.416924 541.161133,117.126892 518.944519,124.399422
	C477.948914,137.819153 439.097809,156.036118 401.643250,177.303345
	C327.434265,219.440277 264.641357,274.548157 214.024506,343.316010
	C178.137039,392.072601 150.360428,445.238373 129.414658,501.972961
	C117.587090,534.009644 106.534920,566.253357 104.721283,600.862610
	C103.271820,628.522461 106.977592,655.309937 116.899628,681.164307
	C131.691116,719.707336 157.079849,750.474426 188.584488,776.300415
	C234.044220,813.566162 283.726959,844.171021 337.455933,868.127380
	C374.975433,884.856384 413.719757,898.008240 453.736908,907.231506
	C490.259857,915.649475 527.227722,921.191711 564.652405,923.972961
	C590.326843,925.881104 615.856018,926.158875 641.252869,921.638184
	C697.950806,911.545837 737.897400,880.743347 760.026733,826.861023
	C780.183594,777.781616 791.510376,726.683289 797.602600,674.243164
	C800.947815,645.448059 802.177734,616.490906 802.488403,587.530640
	C802.729431,565.064331 801.634094,542.611755 799.878174,520.183228
	C797.681824,492.128601 794.115540,464.268921 789.276794,436.569855
	C780.951599,388.912292 768.055786,342.443634 752.400574,296.712769
	C751.784973,294.914398 751.536743,292.742981 749.356628,291.811432
	C748.864502,291.974365 748.317322,292.023590 747.939636,292.302429
	C745.797180,293.884186 743.675476,295.495636 741.582581,297.142578
	C698.580322,330.981812 651.478394,355.618805 596.303040,362.491058
	C587.076538,363.640198 580.422974,369.049774 577.062988,377.983582
	C573.722168,386.866699 570.367432,395.745667 567.143433,404.671448
	C552.947327,443.973328 538.780884,483.285950 524.645203,522.609558
	C522.441956,528.738647 522.770081,529.111816 528.892273,530.999756
	C547.201233,536.645874 565.489014,542.357910 582.417114,551.597961
	C606.879517,564.950500 627.219910,582.627563 641.319336,607.043335
	C655.867920,632.237061 661.556580,659.710693 662.184570,688.368774
	C662.775757,715.345764 662.252991,742.309265 660.466309,769.270630
	C658.914795,792.683594 657.619568,816.116333 655.193054,839.452209
	C654.036682,850.572388 650.525208,861.111633 641.448059,868.530762
	C622.587524,883.946289 590.771606,873.612122 583.794189,849.869568
	C580.803894,839.694214 580.937195,829.325378 581.477417,818.733215
	C582.783020,793.130981 585.704285,767.688416 587.975647,742.183960
	C589.615051,723.775635 591.440796,705.446655 588.788147,686.949219
	C585.852539,666.477661 576.995605,649.613831 559.965637,637.520020
	C542.703308,625.261353 522.942017,618.742615 502.766327,613.351440
	C495.876862,611.510437 488.876862,609.754089 481.613983,610.613770
	C468.562164,612.158508 460.133331,620.050171 454.775360,631.317627
	C447.975616,645.616943 439.001556,658.311279 428.348389,669.916016
	C414.854156,684.615601 403.825684,701.464294 388.403381,714.511841
	C358.426483,739.872986 324.986389,749.045776 287.097778,736.305237
	C249.439163,723.642029 221.401550,697.746338 196.381638,668.123108
	C192.821884,663.908386 190.905762,658.518799 192.197647,652.701294
	C194.682236,641.512695 207.535217,631.197632 219.018936,630.580383
	C230.371582,629.970215 238.872360,635.586060 246.433578,642.885437
	C259.582336,655.578796 274.248291,666.261292 289.697388,675.830200
	C302.859741,683.982727 314.439117,682.176086 325.345795,671.130188
	C328.026947,668.414795 330.528992,665.467957 332.763336,662.374634
	C356.172150,629.966919 375.475769,595.193970 391.570374,558.661743
	C416.494965,502.086700 433.698944,443.001831 447.872406,382.963806
	C449.145538,377.570831 448.388855,376.318726 442.676300,376.495422
	C435.882751,376.705597 429.088623,377.271515 422.348846,378.433197
	C397.904175,382.646576 377.547638,394.005096 361.655487,413.087128
	C346.741547,430.994568 338.018005,451.911804 332.328430,474.280060
	C329.745239,484.435669 327.460785,494.723022 322.222565,503.970917
	C317.775696,511.821747 311.802277,518.149414 302.417633,519.263123
	C278.150818,522.142883 263.579590,508.760529 263.655975,486.504181
	C263.718536,468.271973 268.145081,450.891815 273.995453,433.843048
	C282.780426,408.242554 296.932495,386.229645 318.374023,369.271210
	C335.996063,355.333588 356.384918,347.762207 377.919495,342.196747
	C414.929443,332.631836 452.564148,327.063385 490.538086,323.857910
	C520.199646,321.354095 549.945374,319.830505 579.449219,315.668304
	C615.889526,310.527618 651.285583,301.662048 684.673462,285.755402
	C693.714233,281.448212 702.633240,276.916473 710.395081,270.483612
	C720.335205,262.245361 724.826050,252.059921 721.485657,239.049545
	C719.860168,232.718704 717.599243,226.637451 714.682068,220.830261
	C705.022095,201.600327 691.109131,185.385040 677.119263,168.368851
z"/>
<path fill="#8a1538" opacity="1.000000" stroke="none"
	d="
M537.695251,778.349365
	C562.633850,809.156433 554.472046,860.186584 520.270447,880.096313
	C499.249207,892.333191 475.976379,893.224548 457.830170,876.299500
	C448.571991,867.664368 441.982178,857.026794 436.093079,845.983948
	C428.782990,832.276489 429.247223,817.631470 433.013092,803.270447
	C438.015137,784.195435 448.813782,768.905762 466.160706,758.827515
	C483.705750,748.634033 501.050812,749.486084 518.028320,760.267761
	C525.545410,765.041565 531.958069,771.076782 537.695251,778.349365
M467.696075,833.799316
	C475.470520,841.767761 483.988586,848.902100 492.740784,856.604065
	C499.734406,849.563599 506.780518,842.996521 513.214111,835.876038
	C524.082520,823.847229 524.716614,814.428955 516.273132,800.619324
	C515.320129,799.060730 514.222473,797.589905 513.177307,796.088440
	C508.188660,788.922302 501.418823,786.912292 493.071564,788.841797
	C483.767517,790.992554 475.258026,795.237305 466.406036,798.578735
	C464.255676,799.390442 462.732941,800.962402 462.085754,803.134583
	C458.903564,813.814819 455.723938,824.532043 466.860382,832.932739
	C466.991241,833.031494 467.090210,833.172607 467.696075,833.799316
z"/>
<path fill="#8a1538" opacity="1.000000" stroke="none"
	d="
M581.646545,231.017761
	C582.700989,237.775482 580.324097,243.804779 579.557922,250.029007
	C578.602844,257.787140 577.138794,265.461426 575.043701,273.011902
	C571.986633,284.029602 565.419739,291.836761 554.588562,295.879547
	C542.204407,300.502014 529.524963,302.519745 516.391785,300.024994
	C496.946869,296.331268 486.038391,280.899414 489.589752,261.245392
	C493.709686,238.444550 505.215546,220.610596 526.973267,210.995483
	C541.822754,204.433289 566.405640,207.563431 577.175049,225.132339
	C578.385925,227.107773 580.000000,228.836090 581.646545,231.017761
z"/>
</svg>
