<?xml version="1.0" standalone="no"?>
<!DOCTYPE svg PUBLIC "-//W3C//DTD SVG 20010904//EN"
 "http://www.w3.org/TR/2001/REC-SVG-20010904/DTD/svg10.dtd">
<svg version="1.0" xmlns="http://www.w3.org/2000/svg"
 width="300.000000pt" height="300.000000pt" viewBox="0 0 300.000000 300.000000"
 preserveAspectRatio="xMidYMid meet">
<metadata>
Created by potrace 1.10, written by Peter Selinger 2001-2011
</metadata>
<g transform="translate(0.000000,300.000000) scale(0.100000,-0.100000)"
fill="#eeeee4" stroke="#000">
<path d="M1353 2899 c-458 -42 -776 -290 -885 -690 -20 -74 -23 -106 -22 -259
1 -161 3 -184 31 -290 103 -389 334 -792 714 -1245 141 -169 289 -325 307
-325 20 0 129 108 254 252 461 531 738 1032 798 1446 20 133 8 337 -24 447
-124 414 -459 646 -966 668 -58 3 -151 1 -207 -4z m376 -104 c369 -60 623
-274 713 -601 28 -104 31 -358 5 -473 -96 -416 -415 -940 -880 -1446 l-65 -70
-64 70 c-474 513 -798 1049 -885 1465 -24 118 -24 329 1 430 10 41 40 120 66
176 119 248 356 406 679 453 96 14 330 12 430 -4z m-1034 -257 c-70 -79 -71
-75 -5 9 18 24 35 41 38 38 3 -2 -12 -24 -33 -47z m185 -1623 c71 -107 202
-288 283 -390 37 -48 13 -24 -45 42 -56 65 -276 381 -308 443 -22 42 -5 20 70
-95z m1204 -77 c-63 -104 -362 -480 -425 -533 -12 -11 8 16 47 60 38 44 92
109 119 144 28 34 64 80 80 100 17 20 64 83 105 139 41 56 76 102 78 102 2 0
0 -6 -4 -12z m-521 -640 l-61 -61 -43 43 -44 42 36 -21 c52 -30 73 -26 121 22
24 23 45 41 48 39 2 -1 -23 -30 -57 -64z"/>
<path d="M1315 2600 c-262 -69 -454 -255 -537 -520 -33 -108 -33 -302 0 -410
77 -245 251 -426 487 -506 113 -39 295 -46 413 -16 215 55 394 199 491 396 55
111 75 197 75 331 0 134 -20 220 -75 331 -95 193 -277 341 -487 395 -100 25
-269 25 -367 -1z m365 -42 l45 -15 -28 -11 c-36 -15 -42 -33 -23 -70 l15 -30
-60 -47 c-99 -78 -99 -97 -1 -175 29 -23 52 -48 52 -55 0 -7 -25 -31 -55 -54
-95 -71 -94 -99 2 -171 29 -23 53 -47 53 -55 0 -8 -24 -32 -53 -55 -96 -72
-97 -100 -2 -171 30 -23 55 -47 55 -55 0 -7 -24 -31 -53 -54 -96 -72 -97 -100
-2 -171 58 -44 62 -53 44 -93 -14 -30 1 -56 32 -56 11 0 19 -4 19 -8 0 -31
-245 -53 -353 -32 -290 56 -518 286 -568 574 -14 86 -7 240 16 316 38 124 124
259 214 336 90 77 226 145 331 164 66 13 268 5 320 -12z m93 -88 c186 -91 311
-240 362 -435 21 -78 21 -241 0 -320 -34 -133 -125 -274 -227 -353 -53 -41
-207 -122 -230 -122 -7 0 2 12 20 26 50 40 44 64 -34 123 -36 27 -71 52 -77
55 -13 5 -13 5 86 81 80 63 78 79 -19 152 l-77 58 28 20 c99 71 125 97 125
120 0 23 -26 49 -125 120 l-28 20 77 58 c97 73 99 89 19 152 -99 76 -99 76
-86 81 6 3 41 28 77 55 78 59 84 83 34 123 -47 37 -20 32 75 -14z"/>
</g>
</svg>
