<svg version="1.1" id="Layer_1" xmlns="http://www.w3.org/2000/svg" xmlns:xlink="http://www.w3.org/1999/xlink" x="0px" y="0px"
	 width="100%" viewBox="0 0 512 512" enable-background="new 0 0 512 512" xml:space="preserve">
<path fill="#8a1538" opacity="1.000000" stroke="none"
	d="
M229.000000,1.000002
	C246.354233,1.000000 263.708466,1.000000 281.533539,1.415123
	C282.840515,2.216200 283.655975,2.883440 284.515778,2.946489
	C300.987671,4.154352 316.911713,7.893006 332.657837,12.756456
	C351.011871,18.425413 368.804169,25.458431 385.061646,35.661983
	C399.047699,44.439919 413.007202,53.503044 425.750549,63.939377
	C435.540039,71.956573 443.663879,82.090904 452.095581,91.664955
	C468.232300,109.987923 481.091431,130.420456 491.006805,152.788162
	C501.096344,175.548798 508.272308,199.049637 511.142029,223.824356
	C511.233124,224.610748 512.357361,225.277481 513.000000,226.000000
	C513.000000,246.687561 513.000000,267.375122 512.588379,288.518921
	C511.464996,292.263062 510.582489,295.524536 510.068939,298.843079
	C506.311737,323.123047 498.946808,346.289673 488.253906,368.359070
	C478.232056,389.043335 465.630676,408.006714 450.376831,425.315308
	C438.292664,439.027252 425.240906,451.651733 410.692719,462.576569
	C392.719421,476.073334 373.324371,487.279083 352.246338,495.367981
	C332.649506,502.888489 312.636078,508.771759 291.683380,511.092896
	C290.730194,511.198456 289.891846,512.340637 289.000000,513.000000
	C267.979095,513.000000 246.958206,513.000000 225.483887,512.590698
	C224.196274,511.792084 223.397781,511.198914 222.522308,511.045715
	C215.245453,509.772552 207.902527,508.828308 200.677826,507.315430
	C182.407669,503.489532 164.830765,497.400177 148.009537,489.406494
	C138.731613,484.997498 130.028778,479.378326 121.257591,473.997345
	C139.532974,465.908905 157.617462,458.127869 176.749725,449.896027
	C151.185333,439.015717 126.680222,428.586212 101.308220,417.787781
	C126.838432,406.917542 151.403961,396.458038 176.857376,385.620514
	C151.180099,374.699951 126.608765,364.249756 101.293655,353.483215
	C126.668037,342.682953 151.266159,332.213074 176.854614,321.321686
	C151.264053,310.432648 126.791000,300.019104 101.312241,289.177612
	C126.826492,278.313751 151.310257,267.888672 176.845978,257.015656
	C151.191238,246.095016 126.689957,235.665375 101.312157,224.862625
	C126.887665,213.979187 151.421371,203.539062 176.852753,192.716965
	C151.275330,181.829666 126.675018,171.358307 101.295883,160.555420
	C126.804260,149.704544 151.381607,139.249725 176.854446,128.413971
	C151.430038,117.587044 126.856842,107.122604 101.316498,96.246307
	C126.860191,85.370712 151.325714,74.954155 176.844421,64.089188
	C166.646408,59.742928 157.633148,55.977921 148.683899,52.066406
	C139.444351,48.028008 130.267075,43.847141 121.205696,39.425358
	C132.814941,33.294884 144.059570,26.969603 155.796021,21.750296
	C176.430099,12.574142 197.906006,6.110538 220.533554,3.890471
	C223.422424,3.607032 226.181046,1.996003 229.000000,1.000002
z"/>
<path fill="#eeeee4" opacity="1.000000" stroke="none"
	d="
M121.062553,39.728600
	C130.267075,43.847141 139.444351,48.028008 148.683899,52.066406
	C157.633148,55.977921 166.646408,59.742928 176.844421,64.089188
	C151.325714,74.954155 126.860191,85.370712 101.316498,96.246307
	C126.856842,107.122604 151.430038,117.587044 176.854446,128.413971
	C151.381607,139.249725 126.804260,149.704544 101.295883,160.555420
	C126.675018,171.358307 151.275330,181.829666 176.852753,192.716965
	C151.421371,203.539062 126.887665,213.979187 101.312157,224.862625
	C126.689957,235.665375 151.191238,246.095016 176.845978,257.015656
	C151.310257,267.888672 126.826492,278.313751 101.312241,289.177612
	C126.791000,300.019104 151.264053,310.432648 176.854614,321.321686
	C151.266159,332.213074 126.668037,342.682953 101.293655,353.483215
	C126.608765,364.249756 151.180099,374.699951 176.857376,385.620514
	C151.403961,396.458038 126.838432,406.917542 101.308220,417.787781
	C126.680222,428.586212 151.185333,439.015717 176.749725,449.896027
	C157.617462,458.127869 139.532974,465.908905 120.913574,473.849792
	C109.183868,465.779785 97.252739,458.367950 86.976448,449.117737
	C73.432434,436.926056 60.764618,423.749146 50.065727,408.742432
	C35.887104,388.854919 24.052650,367.856628 15.932272,344.777466
	C9.713120,327.101837 4.508546,309.215668 2.902690,290.440063
	C2.857324,289.909668 1.660117,289.477814 1.000000,289.000000
	C1.000000,267.645782 1.000000,246.291550 1.359524,224.776184
	C2.144467,223.776703 2.769854,222.982346 2.965330,222.093430
	C5.931557,208.604706 8.283821,194.952133 11.898513,181.641739
	C17.000420,162.854965 25.002274,145.190704 34.930363,128.407547
	C44.689831,111.909462 55.508274,96.169655 69.066124,82.568237
	C78.480652,73.123466 88.195961,63.914223 98.403870,55.346790
	C105.398834,49.475967 113.471596,44.889313 121.062553,39.728600
z"/>

</svg>
